<?xml version="1.0" standalone="no"?>
<!DOCTYPE svg PUBLIC "-//W3C//DTD SVG 20010904//EN"
 "http://www.w3.org/TR/2001/REC-SVG-20010904/DTD/svg10.dtd">
<svg version="1.0" xmlns="http://www.w3.org/2000/svg"
 width="512.000000pt" height="512.000000pt" viewBox="0 0 512.000000 512.000000"
 preserveAspectRatio="xMidYMid meet">

<g transform="translate(0.000000,512.000000) scale(0.100000,-0.100000)"
fill="#000000" stroke="none">
<path d="M2330 5109 c-305 -29 -646 -126 -910 -259 -273 -138 -559 -356 -755
-576 -384 -432 -602 -931 -655 -1499 -41 -446 55 -949 260 -1355 138 -273 356
-559 576 -755 432 -384 931 -602 1499 -655 446 -41 949 55 1355 260 273 138
559 356 755 576 384 432 602 931 655 1499 41 446 -55 949 -260 1355 -138 273
-356 559 -576 755 -432 384 -931 602 -1499 655 -125 11 -320 11 -445 -1z m680
-1499 l0 -600 600 0 600 0 0 -450 0 -450 -600 0 -600 0 0 -600 0 -600 -450 0
-450 0 0 600 0 600 -600 0 -600 0 0 450 0 450 600 0 600 0 0 600 0 600 450 0
450 0 0 -600z"/>
<path d="M2410 3310 l0 -600 -600 0 -600 0 0 -150 0 -150 600 0 600 0 0 -600
0 -600 150 0 150 0 0 600 0 600 600 0 600 0 0 150 0 150 -600 0 -600 0 0 600
0 600 -150 0 -150 0 0 -600z"/>
</g>
</svg>
