<?xml version="1.0" standalone="no"?>
<!DOCTYPE svg PUBLIC "-//W3C//DTD SVG 20010904//EN"
 "http://www.w3.org/TR/2001/REC-SVG-20010904/DTD/svg10.dtd">
<svg version="1.0" xmlns="http://www.w3.org/2000/svg"
 width="512.000000pt" height="512.000000pt" viewBox="0 0 512.000000 512.000000"
 preserveAspectRatio="xMidYMid meet">

<g transform="translate(0.000000,512.000000) scale(0.100000,-0.100000)"
fill="#000000" stroke="none">
<path d="M2315 5109 c-411 -42 -816 -184 -1150 -403 -1107 -727 -1482 -2153
-876 -3322 133 -256 279 -452 492 -659 404 -393 882 -624 1464 -707 118 -17
512 -17 630 0 767 109 1399 502 1820 1132 208 311 349 691 407 1095 17 118 17
512 0 630 -85 593 -327 1088 -734 1495 -393 394 -891 643 -1453 726 -122 18
-477 26 -600 13z m595 -164 c789 -119 1469 -617 1815 -1330 81 -167 127 -291
170 -462 45 -181 64 -313 72 -503 22 -544 -145 -1086 -470 -1524 l-51 -69 -19
94 c-24 126 -72 221 -157 312 -112 119 -144 134 -680 303 -25 8 -156 69 -292
136 l-248 122 1 106 0 105 52 41 c73 57 158 162 206 253 40 78 91 231 91 280
1 21 10 30 53 51 35 17 62 39 82 68 l30 44 0 446 0 447 -24 53 c-45 99 -164
182 -263 182 -24 0 -28 4 -28 30 0 89 -80 203 -175 250 l-50 25 -456 3 c-518
3 -547 0 -687 -68 -158 -79 -280 -237 -317 -415 -22 -104 -20 -141 10 -170 30
-30 64 -32 99 -4 19 15 26 30 26 54 0 151 97 314 235 395 96 57 144 61 627 58
425 -3 437 -4 465 -24 44 -32 69 -78 76 -134 11 -91 76 -150 165 -150 44 0 93
-29 126 -73 20 -27 21 -43 24 -268 l3 -239 -51 0 c-94 0 -119 27 -120 126 0
129 -40 209 -127 256 -66 35 -117 42 -183 23 -155 -44 -235 -56 -380 -56 -145
0 -225 12 -380 56 -67 19 -117 12 -184 -23 -85 -46 -126 -124 -126 -243 0
-111 -24 -139 -120 -139 l-50 0 0 60 c0 72 -21 100 -74 100 -26 0 -40 -7 -56
-27 -21 -26 -21 -35 -18 -279 l3 -252 30 -44 c20 -29 47 -51 82 -68 41 -20 52
-30 53 -49 0 -49 33 -158 71 -239 52 -112 114 -197 204 -279 l75 -68 0 -100 0
-101 -247 -122 c-227 -112 -270 -129 -503 -203 -140 -44 -282 -95 -315 -112
-36 -19 -92 -64 -140 -112 -98 -98 -145 -185 -173 -324 l-19 -93 -50 69 c-324
436 -490 974 -469 1518 13 360 88 659 246 980 124 253 278 463 486 665 402
390 913 622 1484 674 93 8 439 -4 540 -19z m-573 -1360 c175 -31 433 -17 601
34 71 22 102 18 134 -16 20 -21 24 -38 28 -122 5 -87 9 -104 35 -147 46 -74
109 -108 207 -113 l78 -3 0 -95 c0 -102 -9 -133 -41 -133 -34 0 -87 -27 -100
-52 -7 -12 -20 -66 -30 -118 -42 -239 -176 -421 -384 -521 -44 -21 -107 -45
-140 -54 -78 -20 -252 -20 -330 0 -192 49 -373 193 -460 365 -31 61 -61 162
-70 235 -4 33 -13 72 -21 86 -14 28 -68 59 -103 59 -32 0 -41 31 -41 133 l0
94 80 5 c99 6 159 39 205 112 26 43 30 60 35 147 4 85 8 101 29 123 31 33 53
35 133 14 36 -10 106 -25 155 -33z m13 -1481 c68 -18 110 -23 210 -23 120 0
187 11 318 54 21 7 22 5 22 -62 l0 -69 -161 -190 c-89 -104 -165 -190 -169
-192 -4 -2 -85 84 -179 190 l-171 193 0 69 c0 66 1 68 23 61 12 -4 60 -18 107
-31z m-20 -448 c107 -121 129 -151 118 -161 -49 -46 -201 -165 -209 -165 -13
0 -54 44 -87 92 -24 37 -24 41 -19 180 3 79 11 165 17 192 12 47 13 48 30 30
10 -11 77 -86 150 -168z m640 132 c6 -24 14 -109 17 -189 l5 -145 -44 -55
c-24 -30 -51 -55 -60 -57 -17 -3 -211 156 -206 169 4 13 262 317 269 318 4 1
12 -18 19 -41z m-977 -20 c-14 -95 -8 -365 11 -473 43 -239 121 -498 235 -780
33 -82 59 -151 57 -153 -6 -5 -237 249 -331 363 -45 55 -107 136 -138 180 -60
87 -137 237 -137 268 0 10 21 42 46 70 99 110 102 162 21 322 l-55 110 141 72
c78 40 146 72 150 72 4 1 4 -23 0 -51z m1309 -34 l117 -58 -57 -110 c-48 -94
-56 -119 -55 -163 0 -59 30 -117 87 -172 44 -43 45 -64 6 -141 -37 -73 -38
-103 -4 -137 20 -20 31 -24 57 -19 41 8 58 29 96 120 52 125 42 188 -48 289
-28 32 -51 60 -51 63 0 10 100 203 107 207 12 6 420 -125 478 -154 27 -13 77
-51 111 -84 104 -102 144 -208 144 -386 l0 -106 -82 -79 c-264 -253 -617 -455
-975 -559 -92 -27 -327 -75 -365 -75 -17 0 4 26 98 122 225 230 354 385 354
424 0 32 -42 74 -74 74 -31 0 -56 -23 -169 -155 -47 -55 -126 -143 -176 -195
l-90 -95 36 85 c155 372 252 706 284 980 11 100 7 318 -7 383 l-7 28 34 -14
c19 -8 87 -40 151 -73z m-1691 -206 c66 -131 65 -120 7 -185 -61 -70 -78 -107
-78 -170 1 -156 242 -502 619 -886 l116 -119 -55 7 c-469 59 -958 295 -1311
633 l-79 75 0 106 c0 177 39 283 144 386 33 33 83 71 111 84 58 29 466 160
478 154 4 -3 26 -41 48 -85z m1037 -195 l53 -48 -31 -42 -32 -43 -78 0 -78 0
-31 39 -31 38 73 61 c81 67 74 67 155 -5z m292 -149 c0 -16 -66 -250 -88 -314
l-19 -55 -11 40 c-6 22 -23 88 -38 147 l-26 107 31 43 c30 42 32 43 91 43 36
0 60 -4 60 -11z m-609 -37 l31 -38 -26 -107 c-15 -59 -32 -125 -38 -147 l-11
-40 -19 55 c-19 53 -88 297 -88 310 0 3 27 5 60 5 57 -1 62 -3 91 -38z m348
-341 l61 -243 -63 -144 c-79 -177 -109 -239 -117 -239 -8 0 -82 156 -142 294
l-38 89 61 244 62 243 57 0 57 0 62 -244z"/>
</g>
</svg>
